<svg width="180" height="130" xmlns="http://www.w3.org/2000/svg">
 <style type="text/css">.st0{fill:#03264C;}
	.st1{fill:#EAC926;}
	.st2{fill:#FFFFFF;}</style>

 <g>
  <title>background</title>
  <rect fill="none" id="canvas_background" height="132" width="182" y="-1" x="-1"/>
 </g>
 <g>
  <title>Layer 1</title>
  <g id="g14">
   <g id="g20">
    <path d="m175.40719,62.53645c0,-30.91 -38.4,-56.1 -85.77,-56.1c-47.37,0 -85.77,25.19 -85.77,56.1c0,0.8 -0.01,3 -0.01,3.28c0,32.79 33.56,59.34 85.77,59.34c52.53,0 85.78,-26.55 85.78,-59.34l0,-3.28z" class="st0" id="path22"/>
   </g>
   <g id="g24">
    <path d="m172.12429,62.51063c0,29.14 -36.92,52.76 -82.47,52.76c-45.55,0 -82.47,-23.62 -82.47,-52.76c0,-29.14 36.92,-52.76 82.47,-52.76c45.55,0 82.47,23.62 82.47,52.76" class="st1" id="path26"/>
   </g>
   <g id="g28">
    <path d="m62.27509,45.86444c-0.04,0.08 -0.87,0.93 -0.33,1.62c1.3,1.66 5.32,2.62 9.39,1.7c2.42,-0.54 5.52,-3.01 8.53,-5.4c3.26,-2.59 6.49,-5.18 9.74,-6.21c3.44,-1.09 5.64,-0.63 7.1,-0.18c1.6,0.48 3.47,1.53 6.47,3.78c5.64,4.24 28.34,24.05 32.25,27.47c3.16,-1.43 17.19,-7.47 36.26,-11.67c-1.66,-10.17 -7.84,-19.47 -17.22,-27.08c-13.07,5.49 -29.04,8.35 -44.67,0.73c-0.08,-0.03 -8.53,-4.03 -16.87,-3.84c-12.39,0.29 -17.76,5.65 -23.44,11.33l-7.21,7.75z" class="st2" id="path30"/>
   </g>
   <g id="g32">
    <path d="m134.4942,70.79575c-0.27,-0.24 -26.68,-23.35 -32.66,-27.85c-3.46,-2.6 -5.39,-3.26 -7.41,-3.52c-1.05,-0.14 -2.51,0.06 -3.52,0.34c-2.78,0.76 -6.42,3.19 -9.65,5.75c-3.35,2.66 -6.5,5.17 -9.43,5.83c-3.74,0.84 -8.31,-0.15 -10.39,-1.56c-0.85,-0.57 -1.44,-1.22 -1.73,-1.89c-0.77,-1.79 0.65,-3.21 0.88,-3.45l7.29,-7.88c0.85,-0.85 1.7,-1.69 2.57,-2.53c-2.35,0.31 -4.53,0.91 -6.64,1.5c-2.64,0.74 -5.18,1.45 -7.75,1.45c-1.07,0 -6.82,-0.94 -7.91,-1.24c-6.6,-1.81 -12.39,-3.56 -21.03,-7.6c-10.36,7.71 -17.29,17.36 -19.29,27.98c1.49,0.39 3.89,1.11 4.89,1.33c23.45,5.21 30.76,10.59 32.08,11.71c1.43,-1.59 3.5,-2.61 5.81,-2.61c2.6,0 4.93,1.31 6.35,3.32c1.34,-1.06 3.2,-1.97 5.59,-1.97c1.09,0 2.22,0.2 3.36,0.59c2.64,0.91 4.01,2.67 4.72,4.26c0.89,-0.4 1.98,-0.7 3.26,-0.69c1.26,0 2.58,0.29 3.9,0.86c4.32,1.86 5,6.1 4.6,9.3c0.31,-0.04 0.62,-0.05 0.93,-0.05c5.13,0 9.29,4.17 9.29,9.3c0,1.59 -0.41,3.08 -1.11,4.39c1.39,0.78 4.95,2.56 8.07,2.16c2.49,-0.32 3.44,-1.17 3.78,-1.65c0.23,-0.33 0.48,-0.71 0.25,-0.99l-6.62,-7.35c0,0 -1.09,-1.03 -0.73,-1.43c0.37,-0.41 1.04,0.18 1.52,0.58c3.37,2.81 7.48,7.06 7.48,7.06c0.07,0.04 0.34,0.58 1.86,0.85c1.31,0.23 3.63,0.1 5.23,-1.22c0.4,-0.33 0.81,-0.75 1.15,-1.18c-0.03,0.02 -0.05,0.05 -0.07,0.06c1.69,-2.17 -0.19,-4.36 -0.19,-4.36l-7.73,-8.67c0,0 -1.1,-1.02 -0.73,-1.43c0.34,-0.36 1.05,0.18 1.53,0.58c2.45,2.05 5.9,5.51 9.21,8.76c0.65,0.48 3.56,2.27 7.41,-0.26c2.34,-1.53 2.81,-3.42 2.74,-4.84c-0.16,-1.88 -1.63,-3.22 -1.63,-3.22l-10.55,-10.61c0,0 -1.11,-0.95 -0.72,-1.43c0.32,-0.4 1.05,0.18 1.52,0.58c3.36,2.81 12.46,11.15 12.46,11.15c0.13,0.09 3.27,2.33 7.16,-0.14c1.39,-0.89 2.28,-2.23 2.35,-3.78c0.15,-2.68 -1.75,-4.29 -1.75,-4.29" class="st2" id="path34"/>
   </g>
   <g id="g36">
    <path d="m83.3134,84.24714c-1.64,-0.02 -3.43,0.95 -3.66,0.81c-0.13,-0.09 0.1,-0.74 0.25,-1.12c0.16,-0.38 2.31,-6.86 -2.94,-9.11c-4.02,-1.73 -6.47,0.21 -7.32,1.09c-0.22,0.23 -0.32,0.21 -0.35,-0.08c-0.08,-1.17 -0.6,-4.33 -4.07,-5.38c-4.96,-1.52 -8.14,1.94 -8.95,3.19c-0.36,-2.82 -2.75,-5.02 -5.68,-5.02c-3.18,0 -5.76,2.57 -5.76,5.75c0,3.18 2.58,5.75 5.76,5.75c1.54,0 2.95,-0.61 3.98,-1.61c0.03,0.03 0.05,0.08 0.03,0.19c-0.24,1.42 -0.69,6.6 4.73,8.7c2.17,0.84 4.02,0.22 5.55,-0.86c0.46,-0.32 0.53,-0.19 0.47,0.24c-0.2,1.33 0.05,4.18 4.04,5.8c3.04,1.23 4.84,-0.03 6.01,-1.12c0.51,-0.47 0.65,-0.39 0.68,0.33c0.14,3.85 3.34,6.91 7.23,6.91c4,0 7.24,-3.23 7.25,-7.23c-0.01,-3.99 -3.25,-7.19 -7.25,-7.23" class="st2" id="path38"/>
   </g>
   <g id="g40">
    <path d="m83.3134,98.20754c-3.63,0 -6.57,-2.82 -6.71,-6.41c-0.01,-0.31 -0.04,-1.13 -0.73,-1.13c-0.29,0 -0.53,0.17 -0.82,0.43c-0.8,0.74 -1.81,1.49 -3.3,1.49c-0.67,0 -1.4,-0.16 -2.17,-0.47c-3.83,-1.55 -3.88,-4.18 -3.72,-5.24c0.04,-0.28 0.05,-0.57 -0.14,-0.81l-0.23,-0.21l-0.24,0c-0.2,0 -0.39,0.08 -0.67,0.27c-1.11,0.78 -2.17,1.15 -3.25,1.15c-0.59,0 -1.2,-0.12 -1.82,-0.35c-5.04,-1.96 -4.64,-6.72 -4.4,-8.15c0.04,-0.29 -0.04,-0.51 -0.22,-0.66l-0.36,-0.29l-0.33,0.32c-0.98,0.95 -2.27,1.46 -3.62,1.46c-2.89,0 -5.24,-2.35 -5.23,-5.23c0,-2.89 2.35,-5.23 5.24,-5.23c2.61,0 4.83,1.96 5.16,4.57l0.18,1.41l0.77,-1.19c0.09,-0.14 2.2,-3.34 6.09,-3.33c0.74,0 1.5,0.12 2.27,0.36c3.1,0.95 3.63,3.76 3.71,4.93c0.05,0.68 0.54,0.71 0.64,0.71c0.27,0 0.47,-0.17 0.6,-0.32c0.59,-0.61 1.86,-1.62 3.85,-1.62c0.91,0 1.88,0.22 2.89,0.65c4.93,2.11 2.69,8.37 2.67,8.44c-0.42,1.04 -0.44,1.5 -0.04,1.76l0.19,0.09l0.14,0c0.22,0 0.5,-0.1 0.96,-0.25c0.67,-0.23 1.68,-0.58 2.63,-0.58l0,0c3.71,0.04 6.73,3.06 6.72,6.73c0.01,3.69 -3.01,6.7 -6.71,6.7m52.2,-30.17c-8.14,-7.1 -26.94,-23.45 -32.03,-27.27c-2.91,-2.19 -4.89,-3.34 -6.64,-3.86c-0.78,-0.24 -1.87,-0.51 -3.26,-0.51c-1.3,0 -2.69,0.23 -4.14,0.7c-3.29,1.04 -6.57,3.65 -9.74,6.17l-0.16,0.13c-2.96,2.35 -6.01,4.78 -8.32,5.29c-1.01,0.23 -2.04,0.35 -3.08,0.35c-2.59,0 -4.91,-0.75 -5.78,-1.86c-0.14,-0.18 -0.05,-0.48 0.29,-0.91l0.04,-0.06l7.16,-7.71c5.61,-5.61 10.9,-10.9 23.09,-11.18c0.2,0 0.41,-0.01 0.61,-0.01c7.59,0 15.17,3.4 16.02,3.79c7.12,3.47 14.46,5.23 21.84,5.24c7.69,0 15.63,-1.9 23.98,-5.75c-0.93,-0.78 -1.9,-1.55 -2.9,-2.3c-7.33,3.18 -14.32,4.79 -21.05,4.78c-6.88,-0.01 -13.76,-1.66 -20.44,-4.92c-0.35,-0.17 -8.73,-4.12 -17.44,-4.12c-0.23,0 -0.46,0 -0.69,0.01c-10.24,0.24 -16.01,3.88 -19.88,7.06c-3.77,0.09 -7.03,1 -9.92,1.81c-2.58,0.72 -4.81,1.34 -6.99,1.34c-0.9,0 -2.51,-0.08 -2.66,-0.09c-2.5,-0.08 -15.11,-3.17 -25.14,-6.96c-1.02,0.72 -2.01,1.47 -2.97,2.23c10.48,4.3 23.23,7.62 27.25,7.88c1.12,0.07 2.31,0.2 3.51,0.2c2.66,0 5.32,-0.75 7.89,-1.47c1.52,-0.43 3.2,-0.89 4.96,-1.23c-0.47,0.46 -0.94,0.93 -1.41,1.4l-7.27,7.87c-0.57,0.58 -1.81,2.12 -1,4.02c0.33,0.77 0.99,1.5 1.91,2.12c1.73,1.17 4.84,1.96 7.72,1.96c1.09,0 2.13,-0.11 3.08,-0.32c3.05,-0.68 6.25,-3.23 9.63,-5.92c2.7,-2.15 6.53,-4.87 9.47,-5.67c0.82,-0.22 1.83,-0.36 2.64,-0.36c0.24,0 0.47,0.01 0.68,0.04c1.94,0.25 3.82,0.91 7.16,3.42c5.97,4.48 32.39,27.59 32.64,27.82c0.02,0.02 1.7,1.47 1.59,3.88c-0.06,1.35 -0.81,2.54 -2.11,3.37c-1.13,0.71 -2.29,1.08 -3.47,1.08c-1.77,0 -2.98,-0.83 -3.06,-0.89c-0.1,-0.08 -9.15,-8.38 -12.48,-11.17c-0.53,-0.44 -1.05,-0.83 -1.57,-0.83c-0.28,0 -0.52,0.12 -0.69,0.33c-0.52,0.65 0.06,1.54 0.75,2.13l10.57,10.63c0.01,0.01 1.32,1.24 1.46,2.86c0.08,1.76 -0.76,3.23 -2.51,4.38c-1.25,0.82 -2.51,1.24 -3.75,1.24c-1.62,0 -2.76,-0.74 -3.01,-0.91l-1.52,-1.49c-2.77,-2.73 -5.63,-5.55 -7.73,-7.3c-0.51,-0.42 -1.06,-0.82 -1.58,-0.82c-0.25,0 -0.49,0.1 -0.67,0.28c-0.24,0.27 -0.4,0.74 0.19,1.53c0.24,0.33 0.53,0.6 0.53,0.6l7.72,8.66c0.06,0.08 1.59,1.89 0.17,3.7l-0.27,0.34c-0.23,0.26 -0.48,0.49 -0.72,0.69c-1.32,1.08 -3.07,1.2 -3.77,1.2c-0.37,0 -0.73,-0.03 -1.05,-0.09c-0.76,-0.14 -1.27,-0.35 -1.52,-0.64l-0.09,-0.09c-0.42,-0.44 -4.31,-4.41 -7.53,-7.09c-0.42,-0.36 -0.95,-0.81 -1.5,-0.81c-0.27,0 -0.51,0.11 -0.7,0.31c-0.64,0.7 0.32,1.74 0.73,2.12l6.58,7.26c-0.01,0.07 -0.09,0.22 -0.25,0.45c-0.24,0.32 -1.03,1.12 -3.42,1.42c-0.28,0.03 -0.58,0.05 -0.87,0.05c-2.46,0 -5.09,-1.19 -6.44,-1.91c0.62,-1.3 0.93,-2.73 0.93,-4.17c0,-5.42 -4.39,-9.82 -9.81,-9.82c-0.11,0 -0.24,0 -0.35,0.01c0.18,-2.47 -0.17,-7.15 -4.98,-9.22c-1.38,-0.6 -2.76,-0.9 -4.1,-0.9c-1.05,0 -2.06,0.18 -3.01,0.54c-0.99,-1.93 -2.65,-3.34 -4.81,-4.08c-1.19,-0.41 -2.38,-0.62 -3.52,-0.62c-2,0 -3.84,0.59 -5.49,1.76c-1.57,-1.96 -3.95,-3.12 -6.46,-3.12c-2.19,0 -4.3,0.88 -5.86,2.42c-2.05,-1.56 -10.17,-6.72 -31.92,-11.66c-1.05,-0.24 -3.47,-0.93 -4.95,-1.37c-0.25,1.18 -0.43,2.37 -0.56,3.57c0,0 4.01,0.96 4.8,1.14c22.21,4.93 29.55,10.07 30.8,11.03c-0.42,1.01 -0.64,2.1 -0.64,3.2c0,4.59 3.73,8.33 8.32,8.33c0.52,0 1.03,-0.04 1.53,-0.14c0.69,3.38 2.9,5.94 6.28,7.25c0.99,0.38 1.99,0.57 2.96,0.57c0.63,0 1.27,-0.08 1.9,-0.24c0.62,1.59 2.03,3.56 5.17,4.83c1.1,0.44 2.2,0.68 3.27,0.68c0.87,0 1.73,-0.15 2.54,-0.46c1.5,3.66 5.08,6.09 9.07,6.09c2.64,0 5.18,-1.07 7.03,-2.98c1.58,0.88 4.93,2.47 8.31,2.48c0.44,0 0.85,-0.03 1.26,-0.08c3.36,-0.42 4.92,-1.73 5.64,-2.76c0.13,-0.18 0.25,-0.37 0.35,-0.56c0.79,0.23 1.67,0.41 2.66,0.41c1.83,0 3.59,-0.62 5.37,-1.92c1.75,-1.26 2.99,-3.07 3.17,-4.61c0,-0.02 0.01,-0.04 0.01,-0.07c0.59,0.12 1.19,0.19 1.8,0.19c1.89,0 3.74,-0.59 5.52,-1.75c3.42,-2.24 4.02,-5.18 3.96,-7.09c0.6,0.13 1.21,0.19 1.82,0.19c1.77,0 3.51,-0.54 5.17,-1.59c2.12,-1.36 3.4,-3.43 3.59,-5.85c0.13,-1.64 -0.27,-3.3 -1.14,-4.72c5.73,-2.47 18.84,-7.25 34.27,-10.73c-0.09,-1.2 -0.27,-2.38 -0.48,-3.55c-18.67,4.16 -32.6,10.19 -36.09,11.75" class="st0" id="path42"/>
   </g>
   <g id="g44"/>
  </g>
 </g>
</svg>